<svg width="44" height="44" viewBox="0 0 44 44" fill="none" xmlns="http://www.w3.org/2000/svg">
<g clip-path="url(#clip0_532:10)">
<path d="M0.00304794 0H44.0003V44H0.00304794V0Z" fill="#5686F5"/>
<path d="M2.2443 17.2278C5.7377 14.1151 9.07578 10.8258 12.493 7.62476C13.8362 6.36385 15.2098 5.13339 16.5682 3.89075C16.6778 3.94557 16.7875 4.00344 16.8971 4.06131V5.47146C16.8971 10.0704 16.9123 14.6694 16.8819 19.2684C16.8758 20.2309 17.1773 20.7852 18.158 21.0532C19.3672 21.3821 20.5306 21.8755 21.7215 22.2776C23.2809 22.8045 24.4809 23.706 25.0413 25.3172C25.6595 27.0867 26.9905 27.7568 28.7844 28.0278C31.1722 28.3903 33.554 28.8928 35.8778 29.5476C37.553 30.0197 37.8545 30.8938 37.0535 32.4228C36.2524 33.9578 35.3144 35.4228 34.3854 36.8847C33.7824 37.8349 32.8748 38.2583 31.7326 38.2278C30.3438 38.1943 28.9398 38.3588 27.5692 38.2004C23.9235 37.7771 20.759 38.7669 17.8748 41.0025C17.092 41.6116 16.7905 42.0106 17.4514 42.8451C17.759 43.2319 17.9631 43.6979 18.2524 44.2218H-0.676521V20.8857C0.139725 19.5517 1.0443 18.2999 2.2443 17.2278ZM13.1357 19.7283C13.9367 19.8258 14.7194 20.0908 15.7123 20.3314V7.95674C15.6149 7.92933 15.5174 7.90192 15.4199 7.87451C15.2463 8.42882 15.0697 8.98009 14.8991 9.53745C14.025 12.44 13.1814 15.3486 12.2616 18.239C11.9661 19.1679 12.1093 19.6035 13.1357 19.7283Z" fill="#171B21"/>
</g>
<defs>
<clipPath id="clip0_532:10">
<rect width="43.9972" height="44" fill="white" transform="matrix(-1 0 0 1 43.9973 0)"/>
</clipPath>
</defs>
</svg>
