<svg width="90" height="90" viewBox="0 0 90 90" fill="none" xmlns="http://www.w3.org/2000/svg">
<path fill-rule="evenodd" clip-rule="evenodd" d="M12.4319 73.3483V22.2891C12.4319 20.047 12.4319 18.2384 12.5324 16.7664C12.9728 10.3077 17.9033 5.5045 24.2256 5.07315C25.6976 4.97272 27.5063 4.97272 29.7483 4.97274H67.2119C68.9519 4.97268 70.8313 4.86042 72.4733 5.54054C74.3011 6.2976 75.7531 7.7497 76.51 9.5774C77.1902 11.2194 77.0779 13.0987 77.0779 14.8387V64.6459C77.0779 66.0191 75.9646 67.1323 74.5915 67.1323H23.6207C20.1876 67.1323 17.4047 69.9153 17.4047 73.3483C17.4047 76.7813 20.1876 79.5642 23.6207 79.5642H74.5915C75.9646 79.5642 77.0779 80.6774 77.0779 82.0506C77.0779 83.4238 75.9646 84.537 74.5915 84.537H23.6207C17.4414 84.537 12.4319 79.5276 12.4319 73.3483ZM67.1324 9.94551C71.2706 9.94551 72.1051 10.7801 72.1051 14.9183V62.1596H23.6207C21.3206 62.1596 19.1827 62.8536 17.4047 64.0437V22.3774C17.4047 20.0264 17.4059 18.3876 17.4936 17.1049C17.7678 13.0828 20.6683 10.3002 24.564 10.0344C25.8469 9.94685 27.4856 9.94551 29.8366 9.94551H67.1324Z" fill="white"/>
<g filter="url(#filter0_d)">
<path d="M22.3774 22.3774C22.3774 21.0042 23.4907 19.8911 24.8638 19.8911H34.8094C36.1825 19.8911 37.2957 21.0042 37.2957 22.3774C37.2957 23.7506 36.1825 24.8638 34.8094 24.8638H24.8638C23.4907 24.8638 22.3774 23.7506 22.3774 22.3774Z" fill="#5686F5"/>
<path d="M22.3774 32.323C22.3774 30.9498 23.4907 29.8366 24.8638 29.8366H59.6732C61.0463 29.8366 62.1596 30.9498 62.1596 32.323C62.1596 33.6962 61.0463 34.8094 59.6732 34.8094H24.8638C23.4907 34.8094 22.3774 33.6962 22.3774 32.323Z" fill="#5686F5"/>
<path d="M44.7549 19.8911C43.3818 19.8911 42.2685 21.0042 42.2685 22.3774C42.2685 23.7506 43.3818 24.8638 44.7549 24.8638C46.128 24.8638 47.2413 23.7506 47.2413 22.3774C47.2413 21.0042 46.128 19.8911 44.7549 19.8911Z" fill="#5686F5"/>
</g>
<defs>
<filter id="filter0_d" x="9.94552" y="7.45914" width="64.6459" height="39.7821" filterUnits="userSpaceOnUse" color-interpolation-filters="sRGB">
<feFlood flood-opacity="0" result="BackgroundImageFix"/>
<feColorMatrix in="SourceAlpha" type="matrix" values="0 0 0 0 0 0 0 0 0 0 0 0 0 0 0 0 0 0 127 0" result="hardAlpha"/>
<feOffset/>
<feGaussianBlur stdDeviation="6.21596"/>
<feColorMatrix type="matrix" values="0 0 0 0 0.337255 0 0 0 0 0.52549 0 0 0 0 0.960784 0 0 0 1 0"/>
<feBlend mode="normal" in2="BackgroundImageFix" result="effect1_dropShadow"/>
<feBlend mode="normal" in="SourceGraphic" in2="effect1_dropShadow" result="shape"/>
</filter>
</defs>
</svg>
