<svg width="90" height="90" viewBox="0 0 90 90" fill="none" xmlns="http://www.w3.org/2000/svg">
<path d="M47.2413 27.3502C47.2413 25.977 46.128 24.8638 44.7549 24.8638C43.3818 24.8638 42.2685 25.977 42.2685 27.3502V72.1051C42.2685 73.4783 43.3818 74.5915 44.7549 74.5915C46.128 74.5915 47.2413 73.4783 47.2413 72.1051V27.3502Z" fill="white"/>
<path d="M27.3502 64.646C27.3502 63.2728 26.2369 62.1596 24.8638 62.1596C23.4907 62.1596 22.3774 63.2728 22.3774 64.646V72.1051C22.3774 73.4783 23.4907 74.5915 24.8638 74.5915C26.2369 74.5915 27.3502 73.4783 27.3502 72.1051V64.646Z" fill="white"/>
<path d="M24.8638 24.8638C26.2369 24.8638 27.3502 25.977 27.3502 27.3502V44.7549C27.3502 46.1281 26.2369 47.2413 24.8638 47.2413C23.4907 47.2413 22.3774 46.1281 22.3774 44.7549V27.3502C22.3774 25.977 23.4907 24.8638 24.8638 24.8638Z" fill="white"/>
<path d="M67.1323 27.3502C67.1323 25.977 66.0191 24.8638 64.646 24.8638C63.2729 24.8638 62.1596 25.977 62.1596 27.3502V62.1596C62.1596 63.5328 63.2729 64.646 64.646 64.646C66.0191 64.646 67.1323 63.5328 67.1323 62.1596V27.3502Z" fill="white"/>
<g filter="url(#filter0_d)">
<path fill-rule="evenodd" clip-rule="evenodd" d="M37.2957 22.3775C37.2957 18.2579 40.6353 14.9183 44.7549 14.9183C48.8745 14.9183 52.214 18.2579 52.214 22.3775C52.214 26.497 48.8745 29.8366 44.7549 29.8366C40.6353 29.8366 37.2957 26.497 37.2957 22.3775ZM44.7549 19.8911C43.3818 19.8911 42.2685 21.0043 42.2685 22.3775C42.2685 23.7506 43.3818 24.8638 44.7549 24.8638C46.128 24.8638 47.2413 23.7506 47.2413 22.3775C47.2413 21.0043 46.128 19.8911 44.7549 19.8911Z" fill="#5686F5"/>
<path fill-rule="evenodd" clip-rule="evenodd" d="M17.4047 49.7277C17.4047 45.6081 20.7442 42.2685 24.8638 42.2685C28.9834 42.2685 32.323 45.6081 32.323 49.7277C32.323 53.8472 28.9834 57.1868 24.8638 57.1868C20.7442 57.1868 17.4047 53.8472 17.4047 49.7277ZM24.8638 47.2413C23.4907 47.2413 22.3774 48.3545 22.3774 49.7277C22.3774 51.1009 23.4907 52.2141 24.8638 52.2141C26.2369 52.2141 27.3502 51.1009 27.3502 49.7277C27.3502 48.3545 26.2369 47.2413 24.8638 47.2413Z" fill="#5686F5"/>
<path fill-rule="evenodd" clip-rule="evenodd" d="M64.646 59.6732C60.5264 59.6732 57.1868 63.0128 57.1868 67.1324C57.1868 71.2519 60.5264 74.5915 64.646 74.5915C68.7655 74.5915 72.1051 71.2519 72.1051 67.1324C72.1051 63.0128 68.7655 59.6732 64.646 59.6732ZM62.1596 67.1324C62.1596 65.7592 63.2729 64.646 64.646 64.646C66.019 64.646 67.1323 65.7592 67.1323 67.1324C67.1323 68.5055 66.019 69.6187 64.646 69.6187C63.2729 69.6187 62.1596 68.5055 62.1596 67.1324Z" fill="#5686F5"/>
</g>
<defs>
<filter id="filter0_d" x="4.97275" y="2.48639" width="79.5643" height="84.537" filterUnits="userSpaceOnUse" color-interpolation-filters="sRGB">
<feFlood flood-opacity="0" result="BackgroundImageFix"/>
<feColorMatrix in="SourceAlpha" type="matrix" values="0 0 0 0 0 0 0 0 0 0 0 0 0 0 0 0 0 0 127 0" result="hardAlpha"/>
<feOffset/>
<feGaussianBlur stdDeviation="6.21596"/>
<feColorMatrix type="matrix" values="0 0 0 0 0.337255 0 0 0 0 0.52549 0 0 0 0 0.960784 0 0 0 1 0"/>
<feBlend mode="normal" in2="BackgroundImageFix" result="effect1_dropShadow"/>
<feBlend mode="normal" in="SourceGraphic" in2="effect1_dropShadow" result="shape"/>
</filter>
</defs>
</svg>
