<svg width="90" height="90" viewBox="0 0 90 90" fill="none" xmlns="http://www.w3.org/2000/svg">
<path fill-rule="evenodd" clip-rule="evenodd" d="M44.7549 27.6592C40.3549 22.4432 36.0991 17.4047 28.5934 17.4047C19.6676 17.4047 12.4319 24.6404 12.4319 33.5662C12.4319 50.8335 32.9187 66.1092 44.692 75.6413C56.8467 65.4665 77.0779 51.6029 77.0779 33.5662C77.0779 24.6404 69.8422 17.4047 60.9164 17.4047C53.4107 17.4047 49.1549 22.4432 44.7549 27.6592ZM44.7549 19.9469C48.6317 15.3511 54.433 12.4319 60.9164 12.4319C72.5886 12.4319 82.0507 21.894 82.0507 33.5662C82.0507 53.1473 61.3893 68.1537 47.8026 79.5225C46.0227 81.0118 43.4613 81.0419 41.657 79.5823C28.1359 68.6442 7.45915 52.5254 7.45915 33.5662C7.45915 21.894 16.9212 12.4319 28.5934 12.4319C35.0768 12.4319 40.8781 15.3511 44.7549 19.9469Z" fill="white"/>
<g filter="url(#filter0_d)">
<path d="M58.252 27.9475C60.563 26.8518 63.4051 27.2643 65.3117 29.1708C67.2184 31.0774 67.6309 33.9195 66.5349 36.2305C65.9467 37.4713 66.4757 38.9541 67.7165 39.5424C68.9572 40.1307 70.4399 39.6018 71.0284 38.361C72.9961 34.2105 72.2677 29.094 68.8279 25.6545C65.3885 22.215 60.2719 21.4863 56.1217 23.4543C54.8809 24.0426 54.3519 25.5254 54.9401 26.7661C55.5286 28.0069 57.0113 28.5359 58.252 27.9475Z" fill="#5686F5"/>
<path d="M59.6731 37.2957C61.0462 37.2957 62.1595 36.1825 62.1595 34.8094C62.1595 33.4362 61.0462 32.323 59.6731 32.323C58.3 32.323 57.1867 33.4362 57.1867 34.8094C57.1867 36.1825 58.3 37.2957 59.6731 37.2957Z" fill="#5686F5"/>
</g>
<defs>
<filter id="filter0_d" x="42.2679" y="9.94592" width="42.2687" height="42.2687" filterUnits="userSpaceOnUse" color-interpolation-filters="sRGB">
<feFlood flood-opacity="0" result="BackgroundImageFix"/>
<feColorMatrix in="SourceAlpha" type="matrix" values="0 0 0 0 0 0 0 0 0 0 0 0 0 0 0 0 0 0 127 0" result="hardAlpha"/>
<feOffset/>
<feGaussianBlur stdDeviation="6.21596"/>
<feColorMatrix type="matrix" values="0 0 0 0 0.337255 0 0 0 0 0.52549 0 0 0 0 0.960784 0 0 0 1 0"/>
<feBlend mode="normal" in2="BackgroundImageFix" result="effect1_dropShadow"/>
<feBlend mode="normal" in="SourceGraphic" in2="effect1_dropShadow" result="shape"/>
</filter>
</defs>
</svg>
